<svg width="640" height="640" viewBox="0 0 640 640" fill="none" xmlns="http://www.w3.org/2000/svg">
<rect width="640" height="640" fill="none"/>
<path fill-rule="evenodd" clip-rule="evenodd" d="M79.2097 79.8088C106.156 52.0637 149.844 52.0637 176.79 79.8088L360.791 269.263C387.736 297.009 387.736 341.991 360.791 369.737L176.79 559.19C149.844 586.937 106.156 586.937 79.2097 559.19C52.2634 531.446 52.2634 486.462 79.2097 458.718L206.288 327.873C210.779 323.249 210.779 315.751 206.288 311.127L79.2097 180.282C52.2634 152.537 52.2634 107.554 79.2097 79.8088Z" fill="#0066FF"/>
<path fill-rule="evenodd" clip-rule="evenodd" d="M559.79 559.191C532.844 586.936 489.156 586.936 462.21 559.191L278.209 369.737C251.264 341.991 251.264 297.009 278.209 269.263L462.21 79.8097C489.156 52.0634 532.844 52.0634 559.79 79.8097C586.737 107.554 586.737 152.538 559.79 180.282L432.712 311.127C428.221 315.751 428.221 323.249 432.712 327.873L559.79 458.718C586.737 486.463 586.737 531.446 559.79 559.191Z" fill="#66CCFF"/>
<path fill-rule="evenodd" clip-rule="evenodd" d="M319.5 225.72L361.748 269.082C388.778 296.827 388.778 341.809 361.748 369.556L319.501 412.917L277.253 369.555C250.223 341.809 250.223 296.827 277.253 269.081L319.5 225.72Z" fill="#CC66FF"/>
<path d="M509.999 579C548.659 579 580 547.661 580 509.001C580 470.341 548.659 439 509.999 439C471.339 439 440 470.341 440 509.001C440 547.661 471.339 579 509.999 579Z" fill="#0066FF"/>
</svg>
