<svg width="3123" height="1261" viewBox="0 0 3123 1261" fill="none" xmlns="http://www.w3.org/2000/svg">
<rect width="3123" height="1261" fill="white"/>
<path fill-rule="evenodd" clip-rule="evenodd" d="M361.21 368.809C388.156 341.064 431.844 341.064 458.79 368.809L642.791 558.263C669.736 586.009 669.736 630.991 642.791 658.737L458.79 848.19C431.844 875.937 388.156 875.937 361.21 848.19C334.263 820.446 334.263 775.462 361.21 747.718L488.288 616.873C492.779 612.249 492.779 604.751 488.288 600.127L361.21 469.282C334.263 441.537 334.263 396.554 361.21 368.809Z" fill="#0066FF"/>
<path fill-rule="evenodd" clip-rule="evenodd" d="M841.79 848.191C814.844 875.936 771.156 875.936 744.21 848.191L560.209 658.737C533.264 630.991 533.264 586.009 560.209 558.263L744.21 368.81C771.156 341.063 814.844 341.063 841.79 368.81C868.737 396.554 868.737 441.538 841.79 469.282L714.712 600.127C710.221 604.751 710.221 612.249 714.712 616.873L841.79 747.718C868.737 775.463 868.737 820.446 841.79 848.191Z" fill="#66CCFF"/>
<path fill-rule="evenodd" clip-rule="evenodd" d="M601.5 514.72L643.748 558.082C670.778 585.827 670.778 630.809 643.748 658.556L601.501 701.917L559.253 658.555C532.223 630.809 532.223 585.827 559.253 558.081L601.5 514.72Z" fill="#CC66FF"/>
<path d="M792.999 868C831.659 868 863 836.661 863 798.001C863 759.341 831.659 728 792.999 728C754.339 728 723 759.341 723 798.001C723 836.661 754.339 868 792.999 868Z" fill="#0066FF"/>
<path d="M1114 779.658L1249.76 624.608L1119.16 475.761L1124.33 466.458H1178.93L1283.7 588.637L1388.47 466.458H1443.07L1448.23 475.761L1318.38 624.608L1453.4 779.658L1448.23 788.96H1393.63L1283.7 660.58L1173.76 788.96H1119.16L1114 779.658Z" fill="#585B63"/>
<path d="M1515.77 475.14L1522.41 466.458H1573.32L1685.47 745.547H1700.22L1812.37 466.458H1863.28L1869.92 475.14L1689.89 913H1638.98L1632.34 904.317L1681.78 788.96H1644.89L1515.77 475.14Z" fill="#585B63"/>
<path d="M1939.67 621.507V578.093H2146.26V621.507H1939.67Z" fill="#585B63"/>
<path d="M2257.93 695.931V466.458H2316.96V702.133C2316.96 731.075 2334.17 745.547 2368.6 745.547H2516.17V466.458H2575.19V788.96H2368.6C2294.82 788.96 2257.93 757.951 2257.93 695.931Z" fill="#585B63"/>
<path d="M2716.07 406.299V348H2781V406.299H2716.07ZM2719.02 788.96V466.458H2778.05V788.96H2719.02Z" fill="#585B63"/>
</svg>
